<svg xmlns="http://www.w3.org/2000/svg" version="1.1" xmlns:xlink="http://www.w3.org/1999/xlink" xmlns:svgjs="http://svgjs.com/svgjs" width="1440" height="560" preserveAspectRatio="none" viewBox="0 0 1440 560"><g mask="url(&quot;#SvgjsMask1004&quot;)" fill="none"><rect width="1440" height="560" x="0" y="0" fill="rgba(81, 46, 95, 1)"></rect><path d="M0,437.268C86.303,434.768,170.966,424.53,248.756,387.072C334.135,345.96,418.275,294.674,466.065,212.845C516.181,127.033,546.439,20.793,518.337,-74.526C491.058,-167.055,387.213,-207.976,321.248,-278.363C258.586,-345.226,221.256,-434.916,140.32,-477.887C49.766,-525.964,-64.404,-577.569,-156.159,-531.827C-249.919,-485.086,-228.639,-336.711,-298.847,-258.952C-371.512,-178.473,-540.782,-187.062,-563.227,-80.98C-585.158,22.674,-448.056,89.207,-391.461,178.774C-344.25,253.489,-331.947,353.058,-258.195,401.759C-184.201,450.62,-88.634,439.836,0,437.268" fill="#41254c"></path><path d="M1440 1157.2849999999999C1549.685 1147.106 1641.096 1074.6109999999999 1724.402 1002.539 1798.896 938.091 1846.268 853.674 1891.8609999999999 766.358 1939.935 674.29 1994.404 583.693 1997.318 479.87 2000.545 364.906 1989.964 235.298 1909.061 153.55599999999998 1828.7440000000001 72.406 1698.335 82.368 1585.656 63.94200000000001 1486.64 47.750999999999976 1390.661 41.072 1290.981 52.48599999999999 1172.713 66.029 1026.363 44.14999999999998 951.344 136.57799999999997 875.987 229.42200000000003 951.835 369.041 937.677 487.777 924.002 602.463 834.75 710.35 869.804 820.4 905.444 932.2919999999999 1018.418 998.941 1119.521 1058.675 1217.738 1116.704 1326.409 1167.827 1440 1157.2849999999999" fill="#613772"></path></g><defs><mask id="SvgjsMask1004"><rect width="1440" height="560" fill="#ffffff"></rect></mask></defs></svg>