<svg xmlns="http://www.w3.org/2000/svg" version="1.1" xmlns:xlink="http://www.w3.org/1999/xlink" xmlns:svgjs="http://svgjs.com/svgjs" width="1020" height="600" preserveAspectRatio="none" viewBox="0 0 1020 600"><g mask="url(&quot;#SvgjsMask1040&quot;)" fill="none"><rect width="1020" height="600" x="0" y="0" fill="rgba(81, 46, 95, 1)"></rect><path d="M0,338.587C70.255,333.826,150.943,364.504,206.21,320.869C261.591,277.144,238.022,186.088,271.691,124.077C309.241,54.917,402.25,18.679,412.637,-59.328C423.383,-140.029,378.619,-220.354,325.804,-282.311C272.763,-344.534,200.237,-398.446,118.676,-404.173C40.735,-409.646,-21.354,-346.029,-91.498,-311.612C-148.586,-283.601,-213.005,-268.711,-254.902,-220.874C-296.911,-172.909,-306.106,-107.831,-323.659,-46.535C-344.064,24.719,-383.913,95.23,-366.02,167.156C-347.048,243.419,-296.158,316.759,-224.99,350.091C-155.579,382.601,-76.472,343.769,0,338.587" fill="#41254c"></path><path d="M1020 1000.781C1106.011 1009.856 1199.131 1038.503 1274.153 995.47 1349.757 952.1030000000001 1372.259 856.687 1409 777.65 1445.998 698.061 1498.481 619.809 1489.362 532.516 1480.125 444.095 1417.142 373.501 1359.691 305.656 1301.658 237.12400000000002 1244.962 146.79000000000002 1155.56 138.325 1065.518 129.79899999999998 1004.895 229.416 921.387 264.155 850.373 293.697 767.633 282.986 703.991 326.177 628.6859999999999 377.283 530.3620000000001 438.578 530.268 529.587 530.171 623.518 652.679 665.556 703.56 744.513 744.453 807.97 739.4580000000001 897.733 798.125 945.244 858.598 994.217 942.614 992.616 1020 1000.781" fill="#613772"></path></g><defs><mask id="SvgjsMask1040"><rect width="1020" height="600" fill="#ffffff"></rect></mask></defs></svg>